<?xml version="1.0" encoding="UTF-8"?>
<svg version="1.1" xmlns="http://www.w3.org/2000/svg" width="512" height="512">
<path d="M0 0 C0.9724968 -0.00525911 0.9724968 -0.00525911 1.96463999 -0.01062447 C4.14014838 -0.01993872 6.31538909 -0.01501518 8.49090862 -0.01015663 C10.06519832 -0.01389288 11.63948616 -0.01849431 13.21377105 -0.02388728 C17.54245183 -0.0361358 21.87105543 -0.03585463 26.19974959 -0.03349853 C30.86721881 -0.03309083 35.53466313 -0.04412501 40.20212078 -0.05361366 C49.34757338 -0.07023477 58.4930002 -0.07572371 67.63846663 -0.07683842 C75.0715403 -0.07778836 82.50460545 -0.08189598 89.93767643 -0.08823967 C111.00655055 -0.10585508 132.07540429 -0.11507807 153.14428584 -0.11357872 C154.8484411 -0.11345885 154.8484411 -0.11345885 156.58702374 -0.11333656 C158.29325701 -0.11321392 158.29325701 -0.11321392 160.03395965 -0.1130888 C178.47080581 -0.11227581 196.90757028 -0.13141606 215.34439281 -0.1596133 C234.27004325 -0.18833002 253.19565384 -0.20215426 272.12132663 -0.20042574 C282.74872453 -0.19976143 293.37603681 -0.20527207 304.00341511 -0.22678185 C313.05154376 -0.24497768 322.09954798 -0.24935411 331.147687 -0.235763 C335.76438243 -0.22922529 340.38083903 -0.22914507 344.99751186 -0.2464695 C349.2248602 -0.26216984 353.45177972 -0.25936783 357.6791174 -0.24190123 C359.20736587 -0.23882462 360.73564609 -0.24248863 362.2638571 -0.25362138 C371.44138888 -0.31604346 378.47066426 -0.09850738 385.68345928 6.22211266 C386.22228741 6.87308922 386.76111553 7.52406578 387.31627178 8.19476891 C387.87056866 8.84316734 388.42486553 9.49156578 388.99595928 10.15961266 C392.84208239 15.74168863 392.76190792 20.95915668 392.77720928 27.52680016 C392.78386608 28.5217701 392.79052288 29.51674004 392.7973814 30.54186058 C392.80749076 32.64399942 392.81219895 34.74617024 392.81187725 36.84833336 C392.81624255 40.04834062 392.85255939 43.24695929 392.89049053 46.44672203 C392.89636077 48.49424338 392.90032878 50.54177125 392.90220928 52.58930016 C392.91658031 53.53851845 392.93095135 54.48773674 392.94575787 55.46571922 C392.89639075 62.72014012 391.26809933 68.03843988 386.44127178 73.53461266 C385.78127178 74.08246422 385.12127178 74.63031578 384.44127178 75.19476891 C383.78127178 75.76066734 383.12127178 76.32656578 382.44127178 76.90961266 C380.38831041 78.29295577 378.82948854 78.72769428 376.44127178 79.25726891 C376.24469631 99.32862225 376.12833706 119.39891965 376.1070528 139.4712429 C376.09530628 148.79168795 376.05747189 158.1106543 375.95787334 167.43060875 C375.87111173 175.55557319 375.83365343 183.67902691 375.8549999 191.8044529 C375.86458965 196.10625895 375.84976681 200.40481136 375.77585506 204.70606041 C375.7069887 208.75908969 375.70428935 212.80689439 375.7513628 216.86018372 C375.75710996 218.34370898 375.73910199 219.82755493 375.69501972 221.31043625 C375.56529782 225.95336335 375.69867327 229.92603596 377.44127178 234.25726891 C380.77733197 237.07542355 383.96704164 238.90225437 387.931283 240.66100121 C393.15342989 243.03592173 397.14577974 246.51514138 401.44127178 250.25726891 C402.33459209 251.00621422 403.22791241 251.75515953 404.14830303 252.52680016 C424.14480367 269.83845596 437.24958263 294.97239227 440.44127178 321.25726891 C440.75294941 326.1150323 440.82307528 330.95279065 440.81627178 335.81976891 C440.81545605 336.80846977 440.81545605 336.80846977 440.81462383 337.81714439 C440.77308272 348.79828704 439.82621966 358.81390611 436.44127178 369.25726891 C436.11981182 370.2796566 436.11981182 370.2796566 435.79185772 371.32269859 C431.20925237 385.55078769 424.25413602 397.94339293 414.44127178 409.25726891 C413.77740459 410.06551109 413.11353741 410.87375328 412.42955303 411.70648766 C394.97526439 432.2580253 369.13016123 445.23274712 342.44127178 448.25726891 C337.83262954 448.53573162 333.24503762 448.59159298 328.62877178 448.56976891 C327.3955418 448.56485435 326.16231182 448.5599398 324.89171124 448.55487633 C316.03127151 448.44088373 307.97861991 447.77183225 299.44127178 445.25726891 C298.23213116 444.91695641 297.02299053 444.57664391 295.77720928 444.22601891 C279.7331534 439.30982787 264.74420479 431.7173436 252.87326145 419.6458807 C248.80388631 416.28645719 244.74888476 416.57011063 239.66224957 416.64494896 C238.68271498 416.63941555 237.70318039 416.63388213 236.69396293 416.62818104 C233.41415425 416.61560849 230.13556228 416.63858672 226.85582256 416.66132164 C224.50341294 416.65941776 222.15100422 416.65526242 219.7986021 416.64902306 C214.73374208 416.64022883 209.66922453 416.64699507 204.60439205 416.66568375 C197.27290445 416.6922931 189.94164238 416.68932966 182.61013828 416.67709792 C170.70307246 416.65771161 158.79609562 416.6576401 146.88902569 416.67255211 C146.17676964 416.67343824 145.46451358 416.67432438 144.73067401 416.67523737 C141.8449152 416.67887117 138.95915652 416.68258855 136.07339794 416.68640393 C128.13368709 416.69686279 120.19397512 416.70511084 112.25426006 416.71161461 C111.54348069 416.71220284 110.83270132 416.71279108 110.10038318 416.71339714 C98.23952361 416.72268379 86.37871717 416.71619028 74.51786697 416.69930416 C66.55683228 416.68887316 58.59610082 416.69948634 50.6351006 416.72521198 C45.68093786 416.73738473 40.72688552 416.73317929 35.77271938 416.72463417 C33.47655873 416.72409916 31.18038455 416.7304348 28.88426495 416.74417496 C25.74727796 416.76203436 22.61125209 416.75528982 19.47426128 416.74260521 C18.56782914 416.75377623 17.661397 416.76494724 16.72749722 416.77645677 C9.74156259 416.70757202 4.49037648 414.92921954 -0.80091572 410.29242516 C-1.33974384 409.64144859 -1.87857197 408.99047203 -2.43372822 408.31976891 C-2.98802509 407.67137047 -3.54232197 407.02297203 -4.11341572 406.35492516 C-6.9570167 402.22786102 -7.80871719 398.61817596 -7.80482388 393.64447117 C-7.81079702 391.95750843 -7.81079702 391.95750843 -7.81689084 390.23646563 C-7.80815231 388.39065676 -7.80815231 388.39065676 -7.79923725 386.50755882 C-7.8009461 385.19654994 -7.80265495 383.88554106 -7.80441558 382.53480464 C-7.80888832 378.89755354 -7.80088647 375.26042019 -7.79085946 371.62318408 C-7.7822262 367.70026331 -7.78514503 363.77734922 -7.78666401 359.85442162 C-7.78771294 353.0582395 -7.7814355 346.26209577 -7.77018833 339.46592331 C-7.75393738 329.63979234 -7.74872574 319.81367995 -7.74621235 309.987537 C-7.74183461 294.04545469 -7.72852336 278.10339284 -7.70960712 262.16132164 C-7.69125037 246.67466904 -7.67709286 231.18802199 -7.6685915 215.7013607 C-7.66806605 214.74683574 -7.66754061 213.79231077 -7.66699924 212.8088608 C-7.66438917 208.02031121 -7.66186175 203.23176157 -7.65937543 198.44321191 C-7.63864047 158.71454992 -7.60341279 118.98591076 -7.55872822 79.25726891 C-8.73024433 78.80807091 -8.73024433 78.80807091 -9.92542744 78.3497982 C-12.64535428 77.22132865 -14.45556967 75.97899495 -16.68372822 74.06976891 C-17.67759541 73.24412437 -17.67759541 73.24412437 -18.69154072 72.40180016 C-23.84533854 66.48248006 -24.01561797 60.29130092 -23.99232197 52.79242516 C-23.99756382 51.80028511 -24.00280567 50.80814507 -24.00820637 49.78594017 C-24.014606 47.69574478 -24.01331636 45.60551327 -24.00477314 43.51532555 C-23.99626345 40.33294562 -24.02505388 37.15236249 -24.05677509 33.97015953 C-24.05838744 31.93174861 -24.05780894 29.89333453 -24.05482197 27.85492516 C-24.06605595 26.91198097 -24.07728992 25.96903679 -24.08886433 24.99751854 C-24.01367636 17.80203459 -22.37728635 12.47367521 -17.59388447 7.01508141 C-16.94290791 6.47625328 -16.29193134 5.93742516 -15.62122822 5.38226891 C-14.97282978 4.82797203 -14.32443134 4.27367516 -13.65638447 3.70258141 C-9.194158 0.6280492 -5.36931509 0.006554 0 0 Z " fill="#000000" transform="translate(47.55872821807861,31.74273109436035)"/>
<path d="M0 0 C36.96 0 73.92 0 112 0 C112.01417969 8.90742187 112.02835937 17.81484375 112.04296875 26.9921875 C112.06558393 33.36227287 112.09132472 39.73228569 112.12156963 46.10233307 C112.16030569 54.34819969 112.19173645 62.59387907 112.19555664 70.83984375 C112.19860561 77.37004508 112.21922049 83.89992021 112.26052457 90.42999566 C112.28177252 93.88453245 112.29449803 97.3386065 112.28615379 100.79320908 C112.27714628 104.65916649 112.30737414 108.52430082 112.34057617 112.39013672 C112.32763771 114.08947105 112.32763771 114.08947105 112.31443787 115.82313538 C112.42844015 123.76893712 114.07066268 130.49130072 119.40709209 136.61456108 C124.53758613 141.23837311 130.52624383 143.68996048 137.39453125 143.40234375 C145.07435324 142.21640422 152.26690114 138.83528422 159.25390625 135.55859375 C160.17204102 135.13763428 161.09017578 134.7166748 162.03613281 134.28295898 C163.8538977 133.44297002 165.66009937 132.57737623 167.45214844 131.68383789 C171.6988753 129.7256429 174.75256412 128.45954126 179.33203125 129.89453125 C180.90372952 130.5604318 182.45865159 131.26658056 184 132 C186.05985266 132.89983841 188.1197519 133.79957022 190.1796875 134.69921875 C193.53915679 136.19297571 196.89229883 137.69548485 200.23046875 139.23632812 C208.37851966 142.82204501 215.35271549 144.61555228 224.0859375 142.1171875 C230.99193814 138.36956258 235.28166053 134.67412804 238.37613869 127.20193291 C239.7096312 122.4953403 239.43846565 117.58613134 239.43237305 112.73071289 C239.4425647 111.51049438 239.45275635 110.29027588 239.46325684 109.03308105 C239.48818829 105.70496079 239.5000968 102.37728114 239.50611091 99.04910588 C239.51552212 95.56436153 239.54172761 92.07974343 239.56611633 88.59507751 C239.60970978 82.00442428 239.63830055 75.41379566 239.66143972 68.82304233 C239.69118987 60.57921413 239.74107569 52.33552327 239.79101562 44.09179688 C239.87996186 29.39457301 239.9385577 14.6974217 240 0 C276.96 0 313.92 0 352 0 C352 49.17 352 98.34 352 149 C347.05 148.01 342.1 147.02 337 146 C315.34483452 143.04544291 292.72445227 144.97294557 273 155 C271.24042969 155.84498047 271.24042969 155.84498047 269.4453125 156.70703125 C260.03717013 161.35714415 251.92984735 167.15005175 244 174 C242.87851562 174.96679688 242.87851562 174.96679688 241.734375 175.953125 C222.99729846 193.47152989 210.20652296 220.87458611 208.87426758 246.40991211 C208.08822577 272.31953625 213.29891847 293.48704692 226 316 C226.67264561 317.33032707 227.34063746 318.66303954 228 320 C198.99351167 320.07001944 169.98703596 320.12295351 140.98048019 320.15543652 C138.30160261 320.15849614 135.62272511 320.1616201 132.94384766 320.16479492 C131.94506088 320.16597532 131.94506088 320.16597532 130.92609659 320.16717956 C120.13937402 320.1802396 109.35269934 320.20389672 98.5660052 320.23145839 C87.50090947 320.25949597 76.43583329 320.27594816 65.37070298 320.28226548 C59.15429119 320.28618322 52.93798806 320.29541808 46.72161102 320.31719017 C40.87435095 320.33750416 35.02724463 320.34384409 29.17995262 320.33932304 C27.03047285 320.34015052 24.8809881 320.3461463 22.73153877 320.35761642 C19.8031552 320.37248081 16.87535678 320.36897567 13.94696045 320.36076355 C13.09093035 320.36950207 12.23490024 320.3782406 11.35292983 320.38724393 C8.0038406 320.36175262 5.48830755 320.26111179 2.50331497 318.66495228 C-0.24168923 315.62480361 -0.12460261 312.62794997 -0.12304783 308.72700214 C-0.1260344 307.07736311 -0.1260344 307.07736311 -0.12908131 305.39439803 C-0.12616847 304.18137879 -0.12325563 302.96835955 -0.12025452 301.71858215 C-0.12110894 300.43378344 -0.12196337 299.14898472 -0.12284368 297.82525271 C-0.12508541 294.25192538 -0.12107174 290.67862789 -0.11606562 287.10530436 C-0.11175671 283.25460537 -0.11320786 279.40390812 -0.1139679 275.5532074 C-0.11449285 268.87923088 -0.11134902 262.20526412 -0.10573006 255.53129005 C-0.09761121 245.88178327 -0.09499944 236.23228121 -0.09374207 226.58277138 C-0.09155215 210.92798098 -0.08489371 195.27319578 -0.07543945 179.6184082 C-0.06626377 164.40909857 -0.0591837 149.19979035 -0.05493164 133.99047852 C-0.05466892 133.05335007 -0.05440619 132.11622163 -0.05413551 131.15069536 C-0.05283049 126.4495089 -0.05156678 121.74832243 -0.05032361 117.04713595 C-0.03995288 78.03141934 -0.02151559 39.01571236 0 0 Z " fill="#C08D60" transform="translate(56,112)"/>
<path d="M0 0 C3.63627761 3.04432544 6.99852612 6.31014739 10.33154297 9.68164062 C11.13205078 10.47183594 11.93255859 11.26203125 12.75732422 12.07617188 C30.30645122 30.35272383 37.88936753 54.89761498 37.82373047 79.83764648 C37.43329497 94.69493725 33.35456917 108.609077 26.33154297 121.68164062 C25.83138672 122.67164063 25.33123047 123.66164063 24.81591797 124.68164062 C20.23167565 133.22702436 14.14224576 139.88727045 7.33154297 146.68164062 C6.59033203 147.43445313 5.84912109 148.18726563 5.08544922 148.96289062 C-13.73574423 166.89461368 -39.6189858 173.50090835 -64.99658203 172.92773438 C-89.875237 171.90720179 -111.53567181 160.1119122 -128.66845703 142.68164062 C-129.42900391 141.91980469 -130.18955078 141.15796875 -130.97314453 140.37304688 C-148.18497336 122.12315055 -155.32588027 96.62195274 -154.87939453 71.99414062 C-153.93712269 46.35504014 -142.70000421 24.46037957 -124.66845703 6.68164062 C-123.92982422 5.93269531 -123.19119141 5.18375 -122.43017578 4.41210938 C-90.07385909 -26.48177493 -34.67645149 -27.40018116 0 0 Z " fill="#BBC672" transform="translate(434.66845703125,291.318359375)"/>
<path d="M0 0 C31.68 0 63.36 0 96 0 C96.12049101 30.2878686 96.12049101 30.2878686 96.1507616 45.23508549 C96.16739385 53.32303707 96.18851842 61.41089597 96.22631836 69.4987793 C96.25622909 75.90169919 96.27557697 82.30454918 96.28226548 88.707537 C96.28617494 92.09759507 96.29535683 95.48745317 96.31719017 98.87744713 C96.33891456 102.6628043 96.34196893 106.44774498 96.34057617 110.2331543 C96.351362 111.35596802 96.36214783 112.47878174 96.3732605 113.63562012 C96.36913651 114.66902023 96.36501251 115.70242035 96.36076355 116.76713562 C96.36352893 117.66219661 96.36629431 118.5572576 96.36914349 119.47944164 C95.91530931 122.57827871 94.81441678 124.46886022 93 127 C90.14838839 128.4258058 88.18356335 128.24163669 85 128 C82.39664111 127.06635228 79.97767897 126.08793261 77.4765625 124.9375 C76.0287105 124.29933242 74.58079175 123.66131629 73.1328125 123.0234375 C70.87747574 122.01398055 68.62441005 120.99973317 66.37304688 119.98144531 C64.18371421 118.9959583 61.98698178 118.0286514 59.7890625 117.0625 C59.12734039 116.75626709 58.46561829 116.45003418 57.78384399 116.13452148 C51.68417447 113.46612579 46.38638766 112.92694373 40.08178711 115.30102539 C38.72437815 115.88634219 37.37301946 116.48584606 36.02734375 117.09765625 C34.53582451 117.74027434 33.04428752 118.38285123 31.55273438 119.02539062 C29.23808668 120.04365856 26.92604052 121.06758949 24.61499023 122.09399414 C22.3624389 123.08841955 20.10177725 124.06230373 17.83984375 125.03515625 C17.15736069 125.34655045 16.47487762 125.65794464 15.77171326 125.97877502 C11.13867611 127.96385306 7.84702292 128.51254354 3 127 C0.41015814 123.54855571 -0.37397981 121.04479778 -0.36076355 116.76713562 C-0.36488754 115.7337355 -0.36901154 114.70033539 -0.3732605 113.63562012 C-0.36247467 112.5128064 -0.35168884 111.38999268 -0.34057617 110.2331543 C-0.34123329 108.44715569 -0.34123329 108.44715569 -0.34190369 106.62507629 C-0.34017443 103.36912237 -0.32515137 100.11355757 -0.30418181 96.85768104 C-0.2854006 93.45175356 -0.28366344 90.04581807 -0.28010559 86.6398468 C-0.27078934 80.19423381 -0.24618135 73.74877386 -0.21605712 67.3032282 C-0.17920679 59.24319716 -0.16280741 51.18314115 -0.14648438 43.12304688 C-0.11728349 28.74857877 -0.05718432 14.3744445 0 0 Z " fill="#6A5A2C" transform="translate(184,112)"/>
<path d="M0 0 C1.13308594 -0.020625 2.26617187 -0.04125 3.43359375 -0.0625 C10.14203386 -0.0939581 15.25320928 -0.01422507 20.39453125 4.78515625 C24.42748342 10.05901678 24.88979117 13.01624876 24.84765625 19.5390625 C24.8462413 20.35748627 24.84482635 21.17591003 24.84336853 22.01913452 C24.8377629 24.63779325 24.82520948 27.25636704 24.8125 29.875 C24.80748572 31.64843627 24.80292269 33.42187387 24.79882812 35.1953125 C24.78779164 39.54690782 24.77052325 43.8984395 24.75 48.25 C26.33868896 48.22643433 26.33868896 48.22643433 27.95947266 48.20239258 C31.90666026 48.14789878 35.85381489 48.11357954 39.80126953 48.08520508 C41.50640463 48.07016262 43.21150132 48.04972347 44.91650391 48.02368164 C47.37412012 47.98709716 49.83122269 47.97022827 52.2890625 47.95703125 C53.04555084 47.94154739 53.80203918 47.92606354 54.58145142 47.91011047 C60.0394657 47.90839347 64.25878331 48.92446993 68.39453125 52.78515625 C73.3211987 59.22772137 72.9642206 63.53013787 73 71.5 C73.0309375 73.19962891 73.0309375 73.19962891 73.0625 74.93359375 C73.09399816 81.65057739 72.98416949 86.7042048 68.25 91.89453125 C62.93291229 96.03465944 59.12437522 96.39139734 52.58203125 96.34765625 C51.78721848 96.3462413 50.9924057 96.34482635 50.17350769 96.34336853 C47.63646675 96.33777378 45.09951425 96.32522228 42.5625 96.3125 C40.84179815 96.30748432 39.12109492 96.30292153 37.40039062 96.29882812 C33.1835597 96.28780607 28.96679484 96.27054506 24.75 96.25 C24.76571045 97.30912598 24.7814209 98.36825195 24.79760742 99.45947266 C24.85210122 103.40666026 24.88642046 107.35381489 24.91479492 111.30126953 C24.92983738 113.00640463 24.95027653 114.71150132 24.97631836 116.41650391 C25.01290284 118.87412012 25.02977173 121.33122269 25.04296875 123.7890625 C25.05845261 124.54555084 25.07393646 125.30203918 25.08988953 126.08145142 C25.09160672 131.54006309 24.05676846 135.72096478 20.25 139.89453125 C13.77373258 144.93724989 8.36433125 144.49528549 0.4375 144.5625 C-0.69107422 144.59150391 -1.81964844 144.62050781 -2.98242188 144.65039062 C-9.38949751 144.69941475 -13.42572475 144.64153295 -18.25 140.25 C-23.00992256 134.97549122 -23.39369135 130.96748965 -23.34765625 124.08203125 C-23.3462413 123.28721848 -23.34482635 122.4924057 -23.34336853 121.67350769 C-23.33777378 119.13646675 -23.32522228 116.59951425 -23.3125 114.0625 C-23.30748432 112.34179815 -23.30292153 110.62109492 -23.29882812 108.90039062 C-23.28780607 104.6835597 -23.27054506 100.46679484 -23.25 96.25 C-24.88412842 96.2814209 -24.88412842 96.2814209 -26.55126953 96.31347656 C-30.61021678 96.38611865 -34.66910706 96.43188718 -38.72851562 96.46972656 C-40.48219479 96.4897871 -42.23580753 96.51704251 -43.98925781 96.55175781 C-46.51644318 96.60052302 -49.04274091 96.62302392 -51.5703125 96.640625 C-52.34867462 96.66127014 -53.12703674 96.68191528 -53.9289856 96.70318604 C-59.17682604 96.70532769 -62.0662644 95.68397627 -66.25 92.25 C-72.01210706 85.86496244 -71.49272085 80.16678724 -71.5625 71.9375 C-71.59150391 70.80892578 -71.62050781 69.68035156 -71.65039062 68.51757812 C-71.69939896 62.11256632 -71.64548586 58.06982238 -67.25 53.25 C-61.9880924 48.61450997 -58.82350123 48.10801418 -51.9609375 48.15234375 C-50.73330185 48.15446617 -50.73330185 48.15446617 -49.48086548 48.15663147 C-46.86220675 48.1622371 -44.24363296 48.17479052 -41.625 48.1875 C-39.85156373 48.19251428 -38.07812613 48.19707731 -36.3046875 48.20117188 C-31.95309218 48.21220836 -27.6015605 48.22947675 -23.25 48.25 C-23.27094727 47.16058105 -23.29189453 46.07116211 -23.31347656 44.94873047 C-23.38611865 40.88978322 -23.43188718 36.83089294 -23.46972656 32.77148438 C-23.4897871 31.01780521 -23.51704251 29.26419247 -23.55175781 27.51074219 C-23.60052302 24.98355682 -23.62302392 22.45725909 -23.640625 19.9296875 C-23.66127014 19.15132538 -23.68191528 18.37296326 -23.70318604 17.5710144 C-23.70532725 12.32426119 -22.68747028 9.43034667 -19.25 5.25 C-12.85237102 -0.38600648 -8.28932439 0.03721358 0 0 Z " fill="#010100" transform="translate(375.25,295.75)"/>
<path d="M0 0 C1.08915207 -0.00708481 2.17830414 -0.01416962 3.30046082 -0.02146912 C4.48551208 -0.0189917 5.67056335 -0.01651428 6.89152527 -0.01396179 C8.77529121 -0.02162819 8.77529121 -0.02162819 10.69711304 -0.02944946 C14.13529069 -0.04281948 17.57335828 -0.0434202 21.01155686 -0.04088616 C23.88658741 -0.03981473 26.76159585 -0.04470442 29.63662165 -0.04949158 C36.42342933 -0.06058064 43.21018167 -0.06102808 49.99699402 -0.05497742 C56.98557988 -0.04894234 63.97396418 -0.06123805 70.96251565 -0.08254749 C76.97289585 -0.10019672 82.98321209 -0.10615948 88.99361724 -0.10290974 C92.5787251 -0.10110145 96.16368929 -0.10368715 99.74877357 -0.11762428 C103.75091633 -0.13260073 107.75265249 -0.12320357 111.75480652 -0.11161804 C112.9337851 -0.11926178 114.11276367 -0.12690552 115.32746887 -0.13478088 C123.51335956 -0.08246875 130.39449998 0.81178676 136.76725769 6.44819641 C137.70311707 7.24290344 137.70311707 7.24290344 138.65788269 8.05366516 C144.80777818 15.35343607 145.16677702 22.29903417 145.07975769 31.63569641 C145.10360535 32.80358704 145.127453 33.97147766 145.15202332 35.17475891 C145.13769863 43.6931731 143.66601723 50.74788914 137.76164246 57.17036438 C130.25255033 64.2549262 122.73692852 64.70233628 112.82414246 64.66474915 C110.92530807 64.67504402 110.92530807 64.67504402 108.9881134 64.68554688 C105.53141534 64.70342384 102.07497188 64.70232033 98.61824155 64.69660449 C95.72570388 64.69350468 92.83321455 64.69961387 89.94068378 64.70564324 C83.11354672 64.71966891 76.28653484 64.71814356 69.45939636 64.70674133 C62.43094083 64.69526182 55.40286696 64.70933714 48.37446171 64.73613781 C42.32581073 64.75833354 36.27727922 64.76492351 30.22859043 64.7590614 C26.62223632 64.75569985 23.01612682 64.75805303 19.40980721 64.77531242 C15.38621682 64.79373009 11.36336346 64.7795549 7.33976746 64.7624054 C6.15458023 64.77207336 4.96939301 64.78174133 3.74829102 64.79170227 C-4.3265746 64.71971715 -9.70563957 63.55816706 -15.94367981 58.11225891 C-16.89114075 57.01011047 -16.89114075 57.01011047 -17.85774231 55.88569641 C-18.50485168 55.15608704 -19.15196106 54.42647766 -19.81867981 53.67475891 C-24.41056847 47.01328663 -23.84941316 39.64845992 -23.85774231 31.88569641 C-23.8822345 30.69202454 -23.90672668 29.49835266 -23.93196106 28.26850891 C-23.96011563 19.78459695 -22.97287057 14.19411467 -17.29914856 7.79975891 C-16.18346497 6.85229797 -16.18346497 6.85229797 -15.04524231 5.88569641 C-14.30403137 5.23858704 -13.56282043 4.59147766 -12.79914856 3.92475891 C-8.65656869 0.94880778 -5.06578763 0.01102022 0 0 Z " fill="#000000" transform="translate(95.48274230957031,327.7393035888672)"/>
<path d="M0 0 C42.24 0 84.48 0 128 0 C128 15.84 128 31.68 128 48 C85.76 48 43.52 48 0 48 C0 32.16 0 16.32 0 0 Z " fill="#6B5B2D" transform="translate(168,48)"/>
<path d="M0 0 C1.04436218 -0.00073013 2.08872437 -0.00146027 3.16473389 -0.00221252 C6.61189968 0.00126702 10.05770932 0.04014783 13.50463867 0.0793457 C15.89645143 0.08867246 18.28827376 0.09578922 20.68009949 0.1007843 C26.97185694 0.11986456 33.26303623 0.16897543 39.55456543 0.2243042 C47.1052226 0.28447212 54.65607321 0.3074079 62.20690155 0.33657074 C73.67503881 0.38503849 85.14190777 0.48084892 96.61010742 0.56762695 C96.61010742 16.40762695 96.61010742 32.24762695 96.61010742 48.56762695 C70.06698871 48.68795338 70.06698871 48.68795338 58.77026367 48.71411133 C51.0558454 48.73205881 43.34153374 48.75331207 35.62719727 48.79394531 C29.40914999 48.82649303 23.191217 48.84447039 16.97309113 48.85225868 C14.59837291 48.85781041 12.22366108 48.86865129 9.84899139 48.88481712 C6.52801392 48.90653003 3.20751141 48.9095964 -0.11352539 48.90820312 C-1.59274727 48.92438187 -1.59274727 48.92438187 -3.10185242 48.94088745 C-4.00766556 48.93676346 -4.9134787 48.93263947 -5.84674072 48.9283905 C-6.63210835 48.93115588 -7.41747597 48.93392126 -8.22664261 48.93677044 C-10.9922858 48.46483276 -12.35456092 47.47295678 -14.38989258 45.56762695 C-16.34811212 39.69296832 -15.69695544 32.97230524 -15.73999023 26.80786133 C-15.756559 25.06781651 -15.78386147 23.32784 -15.82202148 21.58813477 C-15.87686139 19.07312909 -15.89867118 16.55971288 -15.91333008 14.04418945 C-15.93599945 13.27007721 -15.95866882 12.49596497 -15.98202515 11.69839478 C-15.96775218 8.03901797 -15.60898334 5.88217498 -13.50279236 2.85832214 C-9.03562465 -0.42894064 -5.41285382 -0.09903135 0 0 Z " fill="#AC822F" transform="translate(55.389892578125,47.432373046875)"/>
<path d="M0 0 C26.25344398 -0.12032643 26.25344398 -0.12032643 37.43554688 -0.14648438 C45.06866707 -0.16442482 52.70167941 -0.18565929 60.3347168 -0.22631836 C66.48793025 -0.25889007 72.64102806 -0.27684853 78.79432106 -0.28463173 C81.14309319 -0.29017913 83.49185893 -0.30101169 85.84058189 -0.31719017 C89.12782903 -0.33893492 92.41459693 -0.3419681 95.7019043 -0.34057617 C96.6751062 -0.351362 97.64830811 -0.36214783 98.65100098 -0.3732605 C103.55773028 -0.35074613 107.06191195 -0.29129651 111 3 C112.59006531 6.18013063 112.18417077 9.61970657 112.203125 13.11328125 C112.20882507 13.91984665 112.21452515 14.72641205 112.22039795 15.55741882 C112.22985195 17.26637458 112.23638352 18.9753486 112.24023438 20.68432617 C112.2499232 23.29183041 112.280935 25.89854078 112.3125 28.50585938 C112.31903185 30.16666199 112.32428161 31.82747024 112.328125 33.48828125 C112.3404718 34.26553055 112.3528186 35.04277985 112.36553955 35.84358215 C112.34694428 40.39115483 111.92350081 43.43896364 109 47 C106.19371544 47.93542819 104.51470368 48.12368604 101.61506653 48.12025452 C100.27103004 48.12231651 100.27103004 48.12231651 98.89984131 48.12442017 C97.91944885 48.12082489 96.9390564 48.11722961 95.92895508 48.11352539 C94.89463852 48.11367142 93.86032196 48.11381744 92.79466248 48.1139679 C89.36959754 48.1132702 85.94458671 48.10548446 82.51953125 48.09765625 C80.14727305 48.09579156 77.77501446 48.0943679 75.40275574 48.09336853 C69.15397074 48.08954736 62.90520893 48.07972045 56.65643311 48.06866455 C49.16160817 48.05664503 41.66677548 48.05204629 34.17194366 48.04621124 C22.78127965 48.03650852 11.39066651 48.01734913 0 48 C0 32.16 0 16.32 0 0 Z " fill="#AC822F" transform="translate(312,48)"/>
<path d="M0 0 C1.21189499 -0.00554901 2.42378998 -0.01109802 3.67240906 -0.01681519 C6.98903489 -0.0265929 10.30409834 -0.01402681 13.62055779 0.00946999 C17.09489473 0.02960797 20.56919813 0.02369791 24.0435791 0.0213623 C29.87766191 0.02141585 35.71142052 0.04115355 41.54541016 0.07324219 C48.28528902 0.11013385 55.0247433 0.11891746 61.76470995 0.11194468 C68.25475312 0.10563404 74.74465106 0.11640428 81.23466492 0.13591003 C83.99372938 0.14407354 86.75271952 0.14679553 89.51179504 0.1452179 C93.3660937 0.14417378 97.22000933 0.16837667 101.07421875 0.1953125 C102.21722946 0.1923819 103.36024017 0.18945129 104.53788757 0.18643188 C106.11501274 0.20345657 106.11501274 0.20345657 107.72399902 0.2208252 C108.63468895 0.22455391 109.54537888 0.22828262 110.48366547 0.23212433 C113.59447653 0.69885985 115.49506771 1.79130185 118.03710938 3.61523438 C119.90341853 7.34785268 119.26509843 11.81994222 119.28710938 15.92773438 C119.31804687 17.35375977 119.31804687 17.35375977 119.34960938 18.80859375 C119.39990148 27.80459379 119.39990148 27.80459379 116.03710938 31.61523438 C113.05055605 32.61075215 111.07641988 32.74552462 107.95777893 32.75567627 C106.90766632 32.76138641 105.85755371 32.76709656 104.77561951 32.77297974 C103.6238472 32.7740976 102.47207489 32.77521545 101.28540039 32.77636719 C99.46558655 32.78381454 99.46558655 32.78381454 97.60900879 32.79141235 C94.28049553 32.80352057 90.95204508 32.8109787 87.62351727 32.81542301 C85.54416905 32.81835493 83.46482633 32.82245991 81.38548088 32.82692719 C74.88000723 32.84059747 68.37454616 32.85026708 61.86905915 32.85412908 C54.35841279 32.85861235 46.84794819 32.87617451 39.3373571 32.90512967 C33.53175818 32.92673538 27.72621045 32.93683272 21.92057174 32.93817019 C18.45291813 32.9392188 14.98543548 32.94513839 11.51782417 32.96298981 C7.65122715 32.98250872 3.78485807 32.97818595 -0.08178711 32.97167969 C-1.23153519 32.98089447 -2.38128326 32.99010925 -3.56587219 32.99960327 C-5.14527084 32.99124954 -5.14527084 32.99124954 -6.75657654 32.98272705 C-7.67078589 32.98419361 -8.58499525 32.98566017 -9.52690792 32.98717117 C-12.47186691 32.53752159 -13.82443231 31.66435111 -15.96289062 29.61523438 C-17.43661304 25.19406714 -17.26902858 20.87277218 -17.33789062 16.24023438 C-17.37527344 15.2940625 -17.41265625 14.34789062 -17.45117188 13.37304688 C-17.46277344 12.45523437 -17.474375 11.53742188 -17.48632812 10.59179688 C-17.50614746 9.75729004 -17.5259668 8.9227832 -17.54638672 8.06298828 C-16.88640207 5.29436647 -15.85153506 3.64486485 -13.78876686 1.68340111 C-9.68541252 -0.71712666 -4.61020893 -0.05349585 0 0 Z " fill="#AC822F" transform="translate(104.962890625,343.384765625)"/>
<path d="M0 0 C5.28 0 10.56 0 16 0 C16.029729 1.87703613 16.029729 1.87703613 16.06005859 3.79199219 C16.13615293 8.436402 16.22486463 13.08050008 16.31738281 17.72460938 C16.35565669 19.73431238 16.39051236 21.74408351 16.421875 23.75390625 C16.46755991 26.6434768 16.52554887 29.53257896 16.5859375 32.421875 C16.59748871 33.31992859 16.60903992 34.21798218 16.62094116 35.14324951 C16.64081085 35.98381897 16.66068054 36.82438843 16.68115234 37.69042969 C16.69447601 38.42767273 16.70779968 39.16491577 16.7215271 39.92449951 C17.04356236 42.32467683 17.73251435 43.94330668 19 46 C21.2831244 47.1415622 22.63479305 47.15334372 25.17431641 47.20532227 C26.03505768 47.22526749 26.89579895 47.24521271 27.78262329 47.26576233 C28.71287323 47.28247482 29.64312317 47.29918732 30.6015625 47.31640625 C31.55316254 47.33718735 32.50476257 47.35796844 33.48519897 47.37937927 C36.53172432 47.44488133 39.57833743 47.5037628 42.625 47.5625 C44.68750916 47.60568459 46.75000937 47.64929886 48.8125 47.69335938 C53.87490954 47.8005634 58.93740755 47.90182902 64 48 C64 53.28 64 58.56 64 64 C62.71834961 64.0093457 61.43669922 64.01869141 60.11621094 64.02832031 C55.35983558 64.06820061 50.60410838 64.13395415 45.84814453 64.20751953 C43.78996102 64.23574049 41.7316689 64.25694941 39.67333984 64.27099609 C36.71395215 64.2924099 33.7558718 64.33905221 30.796875 64.390625 C29.41698395 64.39246796 29.41698395 64.39246796 28.00921631 64.39434814 C24.28806429 64.47961057 21.71209249 64.60559369 18.42578125 66.42578125 C16.20274358 70.43943008 16.39666019 74.27809837 16.390625 78.796875 C16.37408875 79.74564514 16.35755249 80.69441528 16.34051514 81.67193604 C16.29198561 84.69802288 16.27065305 87.72360701 16.25 90.75 C16.22184449 92.80341078 16.19191765 94.85679808 16.16015625 96.91015625 C16.08622516 101.94006279 16.03668067 106.96968944 16 112 C10.72 112 5.44 112 0 112 C-0.029729 110.06966919 -0.029729 110.06966919 -0.06005859 108.1003418 C-0.13606405 103.33109793 -0.22478924 98.56216119 -0.31738281 93.79321289 C-0.35569348 91.72817035 -0.39054266 89.6630606 -0.421875 87.59790039 C-0.46748014 84.63142862 -0.52548201 81.6654204 -0.5859375 78.69921875 C-0.59748871 77.7741301 -0.60903992 76.84904144 -0.62094116 75.8959198 C-0.64081085 75.03525406 -0.66068054 74.17458832 -0.68115234 73.2878418 C-0.69447601 72.53061325 -0.70779968 71.7733847 -0.7215271 70.99320984 C-0.89708612 68.68394812 -0.89708612 68.68394812 -3 66 C-5.70948975 65.09683675 -7.40135334 64.853425 -10.19604492 64.79467773 C-11.03668991 64.77473251 -11.8773349 64.75478729 -12.74345398 64.73423767 C-13.64666885 64.71752518 -14.54988373 64.70081268 -15.48046875 64.68359375 C-16.87245232 64.6524221 -16.87245232 64.6524221 -18.29255676 64.62062073 C-21.2574624 64.55522677 -24.22245672 64.49628738 -27.1875 64.4375 C-29.1972748 64.39430513 -31.20704063 64.35069053 -33.21679688 64.30664062 C-38.14444032 64.19955573 -43.07217299 64.09825955 -48 64 C-48 58.72 -48 53.44 -48 48 C-46.74864258 47.98018066 -45.49728516 47.96036133 -44.20800781 47.93994141 C-39.563598 47.86384707 -34.91949992 47.77513537 -30.27539062 47.68261719 C-28.26568762 47.64434331 -26.25591649 47.60948764 -24.24609375 47.578125 C-21.3565232 47.53244009 -18.46742104 47.47445113 -15.578125 47.4140625 C-14.68007141 47.40251129 -13.78201782 47.39096008 -12.85675049 47.37905884 C-12.01618103 47.35918915 -11.17561157 47.33931946 -10.30957031 47.31884766 C-9.57232727 47.30552399 -8.83508423 47.29220032 -8.07550049 47.2784729 C-5.64791155 46.95275978 -4.05202154 46.33612941 -2 45 C-1.09683675 42.29051025 -0.853425 40.59864666 -0.79467773 37.80395508 C-0.7647599 36.54298759 -0.7647599 36.54298759 -0.73423767 35.25654602 C-0.70916893 33.90172371 -0.70916893 33.90172371 -0.68359375 32.51953125 C-0.66281265 31.59154221 -0.64203156 30.66355316 -0.62062073 29.70744324 C-0.55522677 26.7425376 -0.49628738 23.77754328 -0.4375 20.8125 C-0.39430513 18.8027252 -0.35069053 16.79295937 -0.30664062 14.78320312 C-0.19955573 9.85555968 -0.09825955 4.92782701 0 0 Z " fill="#EDEDED" transform="translate(368,312)"/>
</svg>
